<svg width="27" height="27" viewBox="0 0 27 27" fill="none" xmlns="http://www.w3.org/2000/svg">
<g clip-path="url(#clip0_1743_3)">
<mask id="mask0_1743_3" style="mask-type:luminance" maskUnits="userSpaceOnUse" x="0" y="0" width="27" height="27">
<path d="M0 0H26.4509V26.4509H0V0Z" fill="white"/>
</mask>
<g mask="url(#mask0_1743_3)">
<path fill-rule="evenodd" clip-rule="evenodd" d="M0 0H26.4509V26.4509H0V0ZM20.2206 22.1746C18.9939 22.1746 18.3007 21.5354 17.7684 20.6647L15.7482 21.8385C16.4778 23.2801 17.969 24.38 20.2779 24.38C22.6386 24.38 24.3965 23.1544 24.3965 20.916C24.3965 18.8407 23.204 17.9183 21.0924 17.0112L20.4708 16.7456C19.4039 16.2827 18.9421 15.9818 18.9421 15.2357C18.9421 14.6328 19.405 14.1711 20.1324 14.1711C20.8455 14.1711 21.3051 14.4719 21.7316 15.2357L23.6669 13.9936C22.848 12.5531 21.7129 12.0032 20.1324 12.0032C17.9127 12.0032 16.4921 13.4227 16.4921 15.2875C16.4921 17.3099 17.6824 18.2676 19.4767 19.0314L20.0983 19.2981C21.2323 19.7941 21.9079 20.096 21.9079 20.948C21.9079 21.66 21.25 22.1746 20.2206 22.1746ZM10.5881 22.1581C9.73392 22.1581 9.37793 21.574 8.98778 20.8797L6.96429 22.1052C7.55062 23.3462 8.70344 24.3756 10.6928 24.3756C12.8959 24.3756 14.4047 23.204 14.4047 20.6306V12.1443H11.9194V20.5975C11.9194 21.8396 11.4036 22.1581 10.587 22.1581" fill="#383838"/>
</g>
</g>
<defs>
<clipPath id="clip0_1743_3">
<rect width="26.4509" height="26.4509" rx="5" fill="white"/>
</clipPath>
</defs>
</svg>
