<svg width="24" height="25" viewBox="0 0 24 25" fill="none" xmlns="http://www.w3.org/2000/svg">
<g clip-path="url(#clip0_1743_14)">
<path d="M7.22063 7.43156L7.86785 6.96333C7.76884 6.82658 7.62907 6.7247 7.46858 6.67232C7.30809 6.61993 7.13513 6.61972 6.97451 6.67172C6.81389 6.72372 6.67387 6.82526 6.57454 6.96177C6.47521 7.09828 6.42166 7.26274 6.42159 7.43156H7.22063ZM12.0148 22.6133C9.25992 22.6133 6.61782 21.5189 4.66979 19.5708C2.72176 17.6228 1.62737 14.9807 1.62737 12.2258H0.0292969C0.0292969 15.4045 1.29206 18.4531 3.53978 20.7008C5.78751 22.9486 8.83608 24.2113 12.0148 24.2113V22.6133ZM22.4023 12.2258C22.4023 13.5899 22.1336 14.9406 21.6116 16.2009C21.0896 17.4612 20.3245 18.6063 19.3599 19.5708C18.3953 20.5354 17.2502 21.3005 15.99 21.8226C14.7297 22.3446 13.3789 22.6133 12.0148 22.6133V24.2113C15.1936 24.2113 18.2422 22.9486 20.4899 20.7008C22.7376 18.4531 24.0004 15.4045 24.0004 12.2258H22.4023ZM12.0148 1.83831C13.3789 1.83831 14.7297 2.10699 15.99 2.62901C17.2502 3.15103 18.3953 3.91616 19.3599 4.88073C20.3245 5.8453 21.0896 6.9904 21.6116 8.25067C22.1336 9.51094 22.4023 10.8617 22.4023 12.2258H24.0004C24.0004 9.04702 22.7376 5.99845 20.4899 3.75072C18.2422 1.50299 15.1936 0.240234 12.0148 0.240234V1.83831ZM12.0148 0.240234C8.83608 0.240234 5.78751 1.50299 3.53978 3.75072C1.29206 5.99845 0.0292969 9.04702 0.0292969 12.2258H1.62737C1.62737 9.47085 2.72176 6.82876 4.66979 4.88073C6.61782 2.9327 9.25992 1.83831 12.0148 1.83831V0.240234ZM8.01966 19.4171V7.43156H6.42159V19.4171H8.01966ZM6.57341 7.8998L16.9609 22.2825L18.2553 21.346L7.86785 6.96333L6.57341 7.8998ZM16.01 6.63253V16.221H17.6081V6.63253H16.01Z" fill="#383838"/>
</g>
<defs>
<clipPath id="clip0_1743_14">
<rect width="23.9711" height="23.9711" fill="white" transform="translate(0.0292969 0.23999)"/>
</clipPath>
</defs>
</svg>
