<svg width="27" height="27" viewBox="0 0 27 27" fill="none" xmlns="http://www.w3.org/2000/svg">
<path d="M16.2768 17.8985C15.6866 18.7377 15.0435 19.5383 14.3514 20.2956C16.1952 22.0844 17.909 22.922 18.8601 22.372C19.8113 21.8232 19.9424 19.9198 19.3153 17.4301C18.3752 17.6395 17.3546 17.7993 16.2768 17.8985ZM14.833 17.9933C13.9976 18.0279 13.1611 18.0279 12.3257 17.9933C12.7401 18.5355 13.1611 19.0381 13.5788 19.4955C13.9976 19.0381 14.4175 18.5366 14.833 17.9933ZM20.3877 9.29206C23.3248 10.1341 25.2436 11.5338 25.2436 13.2233C25.2436 14.9129 23.3259 16.3126 20.3888 17.1546C21.1272 20.1193 20.8737 22.48 19.4112 23.3242C17.9487 24.1696 15.7775 23.2085 13.5788 21.0858C11.3811 23.2074 9.20997 24.1696 7.74745 23.3242C6.28384 22.48 6.03145 20.1193 6.76987 17.1546C3.83273 16.3126 1.91504 14.9129 1.91504 13.2233C1.91504 11.5338 3.83273 10.1341 6.76987 9.29206C6.03145 6.32736 6.28494 3.96662 7.74745 3.12129C9.20997 2.27707 11.3811 3.23812 13.5788 5.3608C15.7775 3.23812 17.9487 2.27707 19.4112 3.12129C20.8737 3.96662 21.1272 6.32736 20.3888 9.29206M19.3164 9.01873C19.9446 6.52794 19.8124 4.62569 18.8612 4.07573C17.9101 3.52687 16.1963 4.36448 14.3536 6.15322C15.0452 6.91062 15.6879 7.71128 16.2779 8.55033C17.3557 8.64952 18.3763 8.80823 19.3164 9.01873ZM7.84334 17.4279C7.21623 19.9187 7.34739 21.821 8.29962 22.3698C9.25075 22.9187 10.9645 22.0822 12.8073 20.2934C12.1155 19.5358 11.4727 18.7348 10.883 17.8952C9.86121 17.8039 8.8463 17.6474 7.84444 17.4268M12.3279 8.45335C13.1633 8.41877 13.9998 8.41877 14.8352 8.45335C14.4382 7.93585 14.019 7.43576 13.5788 6.95446C13.16 7.41295 12.7412 7.91551 12.3257 8.45776M10.8819 8.55364C11.4716 7.71447 12.1144 6.9138 12.8062 6.15653C10.9634 4.36669 9.24964 3.52908 8.29962 4.07793C7.34849 4.62789 7.21623 6.53125 7.84444 9.02094C8.78455 8.81154 9.80511 8.65283 10.883 8.55254M15.6662 16.8405C16.4511 15.6892 17.1488 14.4808 17.7536 13.2255C17.1492 11.9702 16.4518 10.7619 15.6673 9.61057C14.278 9.50659 12.8829 9.50659 11.4936 9.61057C10.7083 10.7618 10.0102 11.9702 9.40504 13.2255C10.0099 14.4808 10.7076 15.6891 11.4925 16.8405C12.8818 16.9443 14.2769 16.9443 15.6662 16.8405ZM17.0824 16.695C17.7602 16.6068 18.405 16.4944 19.0111 16.3611C18.8129 15.7392 18.5879 15.1262 18.3366 14.5238C17.949 15.2645 17.5309 15.9888 17.0835 16.695M10.0773 9.75495C9.39953 9.84312 8.75479 9.95664 8.14863 10.09C8.33599 10.6807 8.56192 11.2957 8.82423 11.9272C9.21183 11.1865 9.62989 10.4622 10.0773 9.75605M8.14863 16.3622C8.75479 16.4955 9.39953 16.6079 10.0773 16.6961C9.6299 15.9899 9.21184 15.2656 8.82423 14.5249C8.5726 15.1273 8.34719 15.7403 8.14863 16.3622ZM7.07075 16.0921C7.35951 15.173 7.73203 14.2097 8.18389 13.2266C7.75228 12.2961 7.38048 11.339 7.07075 10.3611C4.6009 11.0621 3.01826 12.1289 3.01826 13.2266C3.01826 14.3243 4.6009 15.3901 7.07075 16.0921ZM19.0122 10.09C18.3745 9.95047 17.731 9.83869 17.0835 9.75495C17.5309 10.4611 17.949 11.1855 18.3366 11.9261C18.5989 11.2957 18.8238 10.6807 19.0122 10.09ZM20.089 10.36C19.8024 11.2792 19.4277 12.2424 18.9758 13.2255C19.4277 14.2086 19.8024 15.1719 20.089 16.091C22.5599 15.389 24.1426 14.3232 24.1426 13.2255C24.1426 12.1278 22.5599 11.0621 20.089 10.36ZM13.5788 15.2964C13.3011 15.3055 13.0245 15.2586 12.7653 15.1586C12.5062 15.0586 12.2698 14.9075 12.0702 14.7143C11.8706 14.5211 11.7119 14.2898 11.6035 14.034C11.4951 13.7783 11.4392 13.5033 11.4392 13.2255C11.4392 12.9477 11.4951 12.6728 11.6035 12.417C11.7119 12.1613 11.8706 11.9299 12.0702 11.7367C12.2698 11.5435 12.5062 11.3924 12.7653 11.2924C13.0245 11.1924 13.3011 11.1456 13.5788 11.1546C14.1163 11.1722 14.626 11.398 15 11.7845C15.3741 12.1709 15.5832 12.6877 15.5832 13.2255C15.5832 13.7633 15.3741 14.2801 15 14.6665C14.626 15.053 14.1163 15.2789 13.5788 15.2964Z" fill="#383838"/>
</svg>
