<svg width="28" height="27" viewBox="0 0 28 27" fill="none" xmlns="http://www.w3.org/2000/svg">
<g clip-path="url(#clip0_1743_10)">
<path d="M0.676758 13.2254V26.4509H27.1276V0H0.676758V13.2254ZM21.9912 12.1707C22.6253 12.32 23.2016 12.6523 23.6485 13.1262C23.8899 13.3841 24.2511 13.8578 24.2817 13.9743C24.2899 14.009 23.141 14.7794 22.4433 15.2101C22.4177 15.2274 22.3144 15.12 22.202 14.9514C21.8622 14.4562 21.5043 14.2413 20.958 14.2025C20.157 14.1504 19.6404 14.5686 19.6445 15.2704C19.6403 15.4421 19.6786 15.6122 19.7561 15.7655C19.933 16.1317 20.2645 16.3508 21.2886 16.7946C23.1831 17.608 23.9924 18.1461 24.4958 18.9082C25.0595 19.7605 25.1843 21.121 24.8057 22.1369C24.3842 23.2346 23.3418 23.9835 21.878 24.229C21.4258 24.3108 20.3496 24.2976 19.8627 24.2075C18.7997 24.0182 17.7921 23.4925 17.1722 22.804C16.9267 22.537 16.453 21.8352 16.4836 21.7881C16.4969 21.7707 16.6043 21.7021 16.725 21.6327L17.707 21.064L18.4691 20.6209L18.6286 20.8573C18.8526 21.1971 19.3387 21.6624 19.6321 21.817C20.4761 22.265 21.6341 22.2005 22.2069 21.6881C22.4392 21.4946 22.569 21.1971 22.5516 20.8962C22.5516 20.5903 22.5128 20.4531 22.3532 20.2242C22.1466 19.9316 21.7292 19.6819 20.5364 19.1653C19.1717 18.5751 18.5815 18.2139 18.0484 17.6328C17.7127 17.2503 17.4645 16.7993 17.321 16.3111C17.2218 15.9366 17.1962 14.9976 17.2739 14.6232C17.5541 13.3015 18.5526 12.3848 19.9859 12.1137C20.4513 12.0236 21.5357 12.0575 21.992 12.1699L21.9912 12.1707ZM15.7835 13.2775L15.7918 14.3579H12.3474V24.1439H9.91059V14.3579H6.47115V13.299C6.47115 12.7088 6.48438 12.2186 6.50091 12.2054C6.51413 12.1881 8.60623 12.1798 11.1463 12.1839L15.7703 12.1972L15.7835 13.2775Z" fill="#383838"/>
</g>
<defs>
<clipPath id="clip0_1743_10">
<rect x="0.676758" width="26.4509" height="26.4509" rx="5" fill="white"/>
</clipPath>
</defs>
</svg>
