<svg width="35" height="35" viewBox="0 0 35 35" fill="none" xmlns="http://www.w3.org/2000/svg">
<g clip-path="url(#clip0_1985_17)">
<path d="M0.924014 1.46912C0.924014 1.16807 1.16807 0.924014 1.46912 0.924014H32.9628C33.2638 0.924014 33.5079 1.16807 33.5079 1.46912V32.963C33.5079 33.2641 33.2638 33.5081 32.9628 33.5081H1.46912C1.16807 33.5081 0.924014 33.2641 0.924014 32.963V1.46912Z" stroke="#000" stroke-width="1.09022"/>
<path d="M31.2962 26.0218C31.0495 24.4855 30.0478 23.1951 27.0805 21.9919C26.0497 21.5182 24.9005 21.179 24.5581 20.3979C24.4365 19.9433 24.4204 19.6872 24.4973 19.412C24.7181 18.5189 25.7842 18.2405 26.6291 18.4966C27.1733 18.679 27.6884 19.0983 27.9991 19.7673C29.4522 18.8264 29.4493 18.8326 30.4639 18.1859C30.0924 17.61 29.8942 17.3442 29.651 17.0978C28.777 16.1216 27.5862 15.6189 25.6817 15.6573L24.6896 15.7856C23.739 16.0259 22.833 16.5248 22.3018 17.1938C20.7077 19.0026 21.1623 22.1681 23.102 23.4709C25.013 24.9052 27.8202 25.2315 28.1788 26.5727C28.5277 28.2146 26.9721 28.7462 25.4259 28.5573C24.2864 28.3203 23.6527 27.7412 22.9675 26.6881C21.7065 27.4179 21.7065 27.4179 20.4099 28.1635C20.7174 28.8357 21.0404 29.14 21.5558 29.7224C23.9951 32.1966 30.0992 32.075 31.194 28.33C31.2384 28.2014 31.5332 27.3439 31.2962 26.0218ZM18.6843 15.8556H15.5346L15.5217 23.9986C15.5217 25.7304 15.6113 27.3181 15.3296 27.8047C14.8688 28.7618 13.6748 28.6431 13.1306 28.4575C12.5767 28.1853 12.2951 27.7982 11.9688 27.2511C11.8792 27.094 11.812 26.9724 11.7894 26.963L9.22852 28.5312C9.65434 29.4052 10.2816 30.1638 11.0851 30.6566C12.2854 31.377 13.8986 31.5978 15.5857 31.2104C16.6838 30.8906 17.6312 30.2281 18.1272 29.2196C18.8443 27.8975 18.6905 26.2972 18.684 24.5272C18.7002 21.6395 18.6843 18.7524 18.6843 15.8556Z" fill="#000"/>
</g>
<defs>
<clipPath id="clip0_1985_17">
<rect width="34.4316" height="34.4316" fill="#000"/>
</clipPath>
</defs>
</svg>
