<svg width="31" height="31" viewBox="0 0 31 31" fill="none" xmlns="http://www.w3.org/2000/svg">
<g clip-path="url(#clip0_2067_20)">
<path d="M9.54648 9.15781L10.3707 8.56153C10.2446 8.38739 10.0666 8.25766 9.86224 8.19094C9.65786 8.12423 9.4376 8.12396 9.23307 8.19018C9.02853 8.2564 8.85022 8.38571 8.72372 8.55955C8.59723 8.73338 8.52904 8.94282 8.52895 9.15781H9.54648ZM15.6517 28.491C12.1434 28.491 8.77884 27.0973 6.29812 24.6166C3.8174 22.1359 2.42374 18.7713 2.42374 15.263H0.388672C0.388672 19.311 1.99674 23.1932 4.85911 26.0556C7.72148 28.918 11.6037 30.526 15.6517 30.526V28.491ZM28.8796 15.263C28.8796 17.0001 28.5375 18.7202 27.8727 20.3251C27.208 21.93 26.2336 23.3883 25.0053 24.6166C23.7769 25.8449 22.3187 26.8193 20.7138 27.484C19.1089 28.1488 17.3888 28.491 15.6517 28.491V30.526C19.6997 30.526 23.5819 28.918 26.4443 26.0556C29.3066 23.1932 30.9147 19.311 30.9147 15.263H28.8796ZM15.6517 2.03507C17.3888 2.03507 19.1089 2.37722 20.7138 3.04199C22.3187 3.70675 23.7769 4.68112 25.0053 5.90945C26.2336 7.13777 27.208 8.59601 27.8727 10.2009C28.5375 11.8058 28.8796 13.5259 28.8796 15.263H30.9147C30.9147 11.215 29.3066 7.33281 26.4443 4.47043C23.5819 1.60806 19.6997 0 15.6517 0V2.03507ZM15.6517 0C11.6037 0 7.72148 1.60806 4.85911 4.47043C1.99674 7.33281 0.388672 11.215 0.388672 15.263H2.42374C2.42374 11.7547 3.8174 8.39017 6.29812 5.90945C8.77884 3.42872 12.1434 2.03507 15.6517 2.03507V0ZM10.564 24.4208V9.15781H8.52895V24.4208H10.564ZM8.72228 9.75409L21.9502 28.0697L23.5986 26.8772L10.3707 8.56153L8.72228 9.75409ZM20.7394 8.14028V20.3507H22.7744V8.14028H20.7394Z" fill="white"/>
</g>
<defs>
<clipPath id="clip0_2067_20">
<rect width="30.526" height="30.526" fill="white" transform="translate(0.388672)"/>
</clipPath>
</defs>
</svg>
