<svg width="33" height="33" viewBox="0 0 33 33" fill="none" xmlns="http://www.w3.org/2000/svg">
<g clip-path="url(#clip0_2067_23)">
<path d="M9.50623 18.6535C9.55988 18.6233 9.61897 18.604 9.68011 18.5967C9.74125 18.5893 9.80324 18.5942 9.8625 18.6109C9.92176 18.6276 9.97714 18.6559 10.0255 18.6941C10.0738 18.7322 10.114 18.7796 10.144 18.8334L10.2299 18.9778C10.884 20.1376 11.5654 21.24 12.274 22.2839C13.1555 23.5742 14.0987 24.8212 15.1004 26.0206C15.1799 26.1155 15.2189 26.2379 15.209 26.3613C15.199 26.4847 15.1409 26.5993 15.0472 26.6802L14.9464 26.7702C11.4809 29.7996 9.23504 30.4019 8.19661 28.5867C7.17998 26.8083 7.54657 23.5826 9.29772 18.8974C9.33609 18.7936 9.40995 18.7081 9.50623 18.6535ZM24.2514 22.2131C24.3715 22.1911 24.4954 22.2174 24.5962 22.2863C24.697 22.3552 24.7665 22.4611 24.7897 22.581L24.8169 22.7173C25.6728 27.1953 25.0718 29.4357 23.0113 29.4357C20.9944 29.4357 18.4324 27.5251 15.313 23.708C15.2432 23.6231 15.2073 23.5153 15.2121 23.4055C15.2121 23.1493 15.4247 22.9421 15.6809 22.9421H15.8458C17.1232 22.952 18.4003 22.9075 19.6738 22.8086C21.132 22.6914 22.6597 22.4951 24.2514 22.2131ZM25.4384 12.705C25.4823 12.5878 25.5703 12.4923 25.6835 12.4388C25.7967 12.3854 25.9264 12.3782 26.0448 12.4188L26.1838 12.4652C30.6292 13.9778 32.3217 15.6431 31.2519 17.4584C30.2081 19.2368 27.1732 20.53 22.1432 21.3395C22.0309 21.3561 21.9164 21.3335 21.8188 21.2755C21.7644 21.2447 21.7167 21.2034 21.6785 21.1538C21.6403 21.1043 21.6124 21.0476 21.5965 20.9871C21.5807 20.9267 21.5771 20.8636 21.586 20.8017C21.5949 20.7398 21.6162 20.6803 21.6485 20.6268L21.733 20.4823C22.402 19.3629 23.0235 18.2158 23.5959 17.0441C24.2459 15.6963 24.8633 14.249 25.4384 12.705ZM10.6877 11.3654C10.8 11.3488 10.9146 11.3714 11.0121 11.4295C11.0665 11.4602 11.1143 11.5016 11.1525 11.5511C11.1907 11.6006 11.2185 11.6573 11.2344 11.7178C11.2503 11.7783 11.2539 11.8413 11.2449 11.9032C11.236 11.9651 11.2148 12.0246 11.1824 12.0781L11.0979 12.2226C10.429 13.342 9.80747 14.4891 9.23504 15.6609C8.585 17.0073 7.96766 18.4559 7.39257 19.9999C7.34861 20.1172 7.26067 20.2126 7.14744 20.2661C7.0342 20.3195 6.90459 20.3267 6.78614 20.2861L6.64714 20.2398C2.20178 18.7271 0.509225 17.0618 1.579 15.2466C2.62424 13.4682 5.65777 12.1749 10.6877 11.3654ZM17.8845 5.93614C21.3501 2.9067 23.5973 2.30572 24.6343 4.12093C25.651 5.89798 25.2844 9.12365 23.5332 13.8089C23.4948 13.9127 23.421 13.9996 23.3247 14.0542C23.271 14.0843 23.2118 14.1036 23.1506 14.1108C23.0894 14.118 23.0274 14.113 22.9681 14.0962C22.9089 14.0793 22.8535 14.0509 22.8052 14.0126C22.757 13.9743 22.7168 13.9268 22.6869 13.8729L22.6011 13.7285C21.9654 12.5988 21.2834 11.4959 20.5569 10.4224C19.6754 9.13207 18.7322 7.88505 17.7305 6.68566C17.651 6.59076 17.612 6.46839 17.622 6.34498C17.6319 6.22157 17.69 6.10703 17.7837 6.02608L17.8845 5.93614ZM9.99001 3.09885C12.0069 3.09885 14.5744 5.00945 17.6883 8.82657C17.7565 8.91062 17.794 9.01541 17.7946 9.12365C17.7932 9.24848 17.7426 9.36771 17.6538 9.45548C17.565 9.54324 17.4452 9.59245 17.3203 9.59245L17.1609 9.58699C15.8835 9.58143 14.6065 9.62781 13.3329 9.726C11.7966 9.85147 10.2672 10.0502 8.74989 10.3215C8.62954 10.3419 8.50599 10.3144 8.40565 10.2449C8.30532 10.1753 8.23616 10.0693 8.21296 9.94949L8.1857 9.81594C7.32852 5.33924 7.9295 3.09885 9.99001 3.09885ZM13.9025 11.0179H18.9284C19.0801 11.0181 19.229 11.0579 19.3605 11.1335C19.492 11.209 19.6014 11.3176 19.6779 11.4485L22.1963 15.8367C22.2694 15.9674 22.3077 16.1148 22.3077 16.2646C22.3077 16.4144 22.2694 16.5617 22.1963 16.6925L19.6793 21.0847C19.6027 21.2158 19.493 21.3245 19.3613 21.4001C19.2295 21.4756 19.0803 21.5154 18.9284 21.5153H13.9025C13.7513 21.5159 13.6026 21.4764 13.4716 21.4007C13.3406 21.3251 13.2321 21.216 13.1571 21.0847L10.6346 16.6938C10.5613 16.5629 10.5228 16.4153 10.5228 16.2652C10.5228 16.1152 10.5613 15.9676 10.6346 15.8367L13.1584 11.4499C13.2334 11.3188 13.3417 11.2098 13.4724 11.1342C13.6031 11.0585 13.7515 11.0189 13.9025 11.0193M18.3043 12.0999C18.4564 12.0997 18.6059 12.1393 18.7379 12.2148C18.8699 12.2904 18.9798 12.3993 19.0565 12.5306L20.9508 15.8367C21.0241 15.9676 21.0625 16.1152 21.0625 16.2652C21.0625 16.4153 21.0241 16.5629 20.9508 16.6938L19.0565 20.0054C18.9799 20.1365 18.8702 20.2452 18.7385 20.3208C18.6067 20.3963 18.4575 20.4361 18.3056 20.436H14.5253C14.3743 20.4364 14.2259 20.3967 14.0952 20.3211C13.9645 20.2454 13.8561 20.1365 13.7812 20.0054L11.8802 16.6938C11.8069 16.5629 11.7684 16.4153 11.7684 16.2652C11.7684 16.1152 11.8069 15.9676 11.8802 15.8367L13.7812 12.5306C13.8561 12.3994 13.9645 12.2905 14.0952 12.2149C14.2259 12.1392 14.3743 12.0996 14.5253 12.0999H18.3043ZM17.6351 13.2815H15.1958C15.0447 13.2807 14.8961 13.3201 14.7653 13.3958C14.6345 13.4715 14.5263 13.5807 14.4517 13.7121L13.2266 15.838C13.1535 15.9688 13.1152 16.1161 13.1152 16.2659C13.1152 16.4157 13.1535 16.563 13.2266 16.6938L14.4517 18.8238C14.5273 18.9547 14.6359 19.0634 14.7668 19.139C14.8976 19.2146 15.046 19.2544 15.1972 19.2545H17.6351C17.7863 19.2544 17.9347 19.2146 18.0655 19.139C18.1964 19.0634 18.305 18.9547 18.3806 18.8238L19.6043 16.6938C19.6776 16.5629 19.7161 16.4153 19.7161 16.2652C19.7161 16.1152 19.6776 15.9676 19.6043 15.8367L18.3806 13.7135C18.3061 13.5816 18.1977 13.472 18.0666 13.3961C17.9356 13.3201 17.7866 13.2806 17.6351 13.2815ZM16.9851 14.4098C17.2945 14.4098 17.582 14.5747 17.7305 14.8418L18.3056 15.8367C18.3814 15.9668 18.4213 16.1147 18.4213 16.2652C18.4213 16.4158 18.3814 16.5637 18.3056 16.6938L17.7305 17.6941C17.6557 17.8257 17.5472 17.935 17.4163 18.0109C17.2853 18.0868 17.1365 18.1266 16.9851 18.1261H15.8458C15.6946 18.1259 15.5461 18.0859 15.4152 18.01C15.2844 17.9342 15.1758 17.8252 15.1004 17.6941L14.5253 16.6938C14.4495 16.5637 14.4096 16.4158 14.4096 16.2652C14.4096 16.1147 14.4495 15.9668 14.5253 15.8367L15.1004 14.8418C15.1758 14.7107 15.2844 14.6018 15.4152 14.5259C15.5461 14.4501 15.6946 14.4101 15.8458 14.4098H16.9851ZM16.4155 15.5232C16.2849 15.5235 16.1566 15.5579 16.0435 15.6232C15.9304 15.6885 15.8364 15.7823 15.7709 15.8953C15.7055 16.0086 15.671 16.1371 15.671 16.268C15.671 16.3988 15.7055 16.5274 15.7709 16.6407C15.8365 16.7533 15.9306 16.8465 16.0438 16.9111C16.157 16.9757 16.2852 17.0094 16.4155 17.0086C16.5458 17.0094 16.674 16.9757 16.7871 16.9111C16.9003 16.8465 16.9944 16.7533 17.0601 16.6407C17.1255 16.5274 17.1599 16.3988 17.1599 16.268C17.1599 16.1371 17.1255 16.0086 17.0601 15.8953C16.9945 15.7823 16.9005 15.6885 16.7874 15.6232C16.6743 15.5579 16.5461 15.5235 16.4155 15.5232ZM10.3893 16.2673H11.7248ZM25.9303 10.5614C26.4618 7.98029 26.579 6.00427 26.2329 4.56791C26.0312 3.70937 25.6578 3.01845 25.0881 2.51286C24.4872 1.98138 23.7254 1.71973 22.8736 1.71973C21.4632 1.71973 19.9846 2.36295 18.4024 3.58263C17.6943 4.13538 17.0237 4.73449 16.395 5.37604C16.3387 5.30565 16.2767 5.24002 16.2097 5.1798C14.2391 3.42864 12.5847 2.34251 11.1674 1.92278C10.3266 1.67203 9.53893 1.65023 8.82075 1.89007C8.05897 2.14491 7.45253 2.6723 7.02599 3.41229C6.32416 4.6306 6.13746 6.23867 6.39911 8.21877C6.50541 9.02281 6.69075 9.90179 6.94695 10.8544C6.84741 10.866 6.74927 10.8875 6.65395 10.9184C4.16145 11.747 2.39257 12.6314 1.32416 13.648C0.690473 14.2504 0.274828 14.9263 0.120836 15.6663C-0.0331574 16.454 0.120836 17.2417 0.54602 17.983C1.24921 19.2013 2.54248 20.1594 4.38494 20.9198C5.20402 21.2501 6.04338 21.5278 6.89789 21.7511C6.85428 21.8497 6.82227 21.9531 6.80249 22.0591C6.26965 24.6361 6.15245 26.6162 6.4986 28.0484C6.70029 28.9056 7.07777 29.602 7.64332 30.1035C8.24294 30.635 9.00609 30.8966 9.85782 30.8966C11.2683 30.8966 12.7469 30.252 14.3277 29.0378C14.9777 28.5336 15.6537 27.9258 16.3569 27.2171C16.4322 27.3309 16.5215 27.4349 16.6226 27.5265C18.5932 29.2777 20.2476 30.3638 21.6649 30.7835C22.5057 31.0343 23.2934 31.0561 24.0115 30.8162C24.7733 30.5614 25.3798 30.034 25.8063 29.294C26.5081 28.0757 26.6948 26.4676 26.4332 24.4875C26.3033 23.5613 26.1098 22.6452 25.854 21.7456C25.964 21.7351 26.0726 21.7136 26.1783 21.6816C28.6695 20.8503 30.437 19.9672 31.5068 18.9506C32.1405 18.3496 32.5561 17.6737 32.7101 16.9337C32.8641 16.146 32.7101 15.357 32.2849 14.617C31.5817 13.3987 30.2885 12.4406 28.446 11.6788C27.6008 11.3356 26.7329 11.051 25.8486 10.8271C25.8857 10.742 25.9141 10.6528 25.9303 10.5614Z" fill="#000"/>
</g>
<defs>
<clipPath id="clip0_2067_23">
<rect width="32.7065" height="32.7065" fill="#000" transform="translate(0.0625)"/>
</clipPath>
</defs>
</svg>
