<svg width="33" height="33" viewBox="0 0 33 33" fill="none" xmlns="http://www.w3.org/2000/svg">
<g clip-path="url(#clip0_2067_17)">
<path d="M19.2975 16.0852C19.2975 16.8797 18.982 17.6416 18.4204 18.2035C17.8587 18.7654 17.0969 19.0813 16.3025 19.0816C15.5078 19.0816 14.7457 18.7659 14.1837 18.204C13.6218 17.6421 13.3061 16.8799 13.3061 16.0852C13.3061 15.2908 13.6216 14.5289 14.1833 13.967C14.7449 13.4051 15.5067 13.0892 16.3012 13.0889C17.0958 13.0889 17.858 13.4046 18.4199 13.9665C18.9818 14.5284 19.2975 15.2906 19.2975 16.0852ZM22.846 1.76004C21.0423 1.76004 18.6824 3.04649 16.2958 5.27367C13.9105 3.05855 11.5493 1.78684 9.74694 1.78684C9.19751 1.78684 8.69767 1.91147 8.26483 2.15938C6.42226 3.22204 6.00952 6.53332 6.96096 10.6888C2.88183 11.9485 0.228516 13.9626 0.228516 16.0852C0.228516 18.2159 2.89523 20.2354 6.98642 21.4857C6.04302 25.6573 6.4638 28.9739 8.3104 30.0352C8.73921 30.2858 9.23504 30.4037 9.78714 30.4037C11.5895 30.4037 13.9507 29.1173 16.3373 26.8874C18.7226 29.1039 21.0838 30.3756 22.8862 30.3756C23.4356 30.3756 23.9355 30.255 24.3683 30.0071C26.2095 28.9458 26.6236 25.6345 25.6722 21.4776C29.7366 20.2287 32.3899 18.2106 32.3899 16.0852C32.3899 13.9546 29.7232 11.9351 25.632 10.6821C26.5754 6.51456 26.1546 3.19524 24.308 2.13258C23.8616 1.88153 23.3581 1.753 22.846 1.76004ZM22.8393 3.2207V3.22874C23.1408 3.22874 23.3834 3.2877 23.587 3.39893C24.4795 3.91083 24.8668 5.85793 24.5653 8.3625C24.4929 8.97892 24.375 9.62885 24.2303 10.2922C22.86 9.96063 21.469 9.72156 20.0667 9.57659C19.2316 8.42415 18.3206 7.32868 17.3397 6.29747C19.4731 4.31419 21.4765 3.22606 22.8406 3.22204L22.8393 3.2207ZM9.74694 3.2475C11.1031 3.2475 13.1158 4.33027 15.2546 6.30283C14.3353 7.26767 13.4187 8.3625 12.5477 9.57525C11.1421 9.71853 9.74819 9.95942 8.37606 10.2962C8.23219 9.66772 8.1186 9.0327 8.03569 8.39332C7.72747 5.89009 8.10805 3.94433 8.99249 3.42573C9.2471 3.30512 9.52851 3.2542 9.74694 3.2475ZM16.2891 7.33467C16.8988 7.96182 17.5085 8.66401 18.1116 9.43052C17.5219 9.40372 16.9189 9.38496 16.3092 9.38496C15.6928 9.38496 15.083 9.39836 14.4867 9.43052C15.0763 8.66401 15.6861 7.96316 16.2891 7.33467ZM16.3092 10.8537C17.3008 10.8537 18.2885 10.8992 19.26 10.9783C19.8041 11.7582 20.3347 12.5904 20.8453 13.4708C21.3438 14.3284 21.7967 15.1995 22.2095 16.0785C21.7967 16.9563 21.3438 17.834 20.852 18.6917C20.3428 19.5761 19.8161 20.4176 19.2707 21.1976C17.3038 21.3697 15.3257 21.3719 13.3584 21.2043C12.7958 20.3957 12.2669 19.5641 11.7731 18.7118C11.2746 17.8541 10.8217 16.9831 10.4089 16.104C10.823 15.2118 11.2759 14.3381 11.7664 13.4855C12.2756 12.6011 12.8023 11.7622 13.3477 10.9823C14.3325 10.8953 15.3206 10.8515 16.3092 10.851V10.8537ZM11.4381 11.194C11.1165 11.6992 10.7949 12.2165 10.4947 12.7485C10.1932 13.2711 9.91176 13.7964 9.64375 14.3217C9.28864 13.4427 8.98713 12.5663 8.73787 11.7126C9.59551 11.5116 10.5 11.3321 11.4381 11.194ZM21.1669 11.194C22.0982 11.3321 22.9961 11.5023 23.8551 11.7126C23.6138 12.5596 23.3123 13.4306 22.9706 14.303C22.4238 13.2363 21.8222 12.1986 21.1682 11.194H21.1669ZM25.2715 12.0986C25.9201 12.2996 26.5365 12.5234 27.1141 12.7659C29.435 13.7576 30.9359 15.0547 30.9359 16.0839C30.9292 17.1131 29.4283 18.4156 27.1074 19.4005C26.5445 19.6418 25.9281 19.8588 25.2916 20.0612C24.8891 18.6989 24.3967 17.3649 23.8175 16.0678C24.4206 14.705 24.903 13.3743 25.2715 12.0959V12.0986ZM7.32144 12.1039C7.69397 13.3904 8.18577 14.7264 8.7955 16.0973C8.22056 17.3866 7.73433 18.7137 7.3402 20.0692C6.69161 19.8682 6.07518 19.6431 5.50432 19.3992C3.18334 18.4116 1.68248 17.1131 1.68248 16.0839C1.68248 15.0547 3.18334 13.7495 5.50432 12.7659C6.06714 12.5247 6.68357 12.3076 7.32144 12.1039ZM22.9706 17.8394C23.3257 18.7198 23.6272 19.5975 23.8765 20.4498C23.0189 20.6602 22.113 20.8384 21.1749 20.9724C21.8281 19.9601 22.4266 18.9143 22.9706 17.8394ZM9.64375 17.8662C9.91176 18.3915 10.1932 18.9154 10.5014 19.4407C10.8096 19.9634 11.1245 20.4753 11.4461 20.9724C10.5426 20.8417 9.64554 20.6691 8.75798 20.4552C8.99919 19.6109 9.30204 18.7372 9.64241 17.8648L9.64375 17.8662ZM24.2423 21.8689C24.3924 22.5296 24.5103 23.1661 24.5827 23.7758C24.8909 26.2791 24.5103 28.2248 23.6259 28.7448C23.4289 28.8654 23.173 28.9163 22.8715 28.9163C21.5153 28.9163 19.5025 27.8349 17.3638 25.861C18.2831 24.8961 19.1997 23.8026 20.0707 22.5912C21.5542 22.4331 22.9572 22.1905 24.2423 21.8689ZM8.38946 21.8823C9.67591 22.1959 11.0776 22.4385 12.553 22.5952C13.4375 23.808 14.3554 24.9095 15.28 25.873C13.1426 27.8603 11.1366 28.9484 9.7724 28.9484C9.51469 28.9505 9.26035 28.8898 9.03135 28.7716C8.13887 28.2623 7.75159 26.3139 8.05311 23.8093C8.12547 23.1929 8.24473 22.5443 8.38946 21.8823ZM14.5001 22.74C15.0897 22.7668 15.6928 22.7855 16.3025 22.7855C16.9189 22.7855 17.5286 22.7721 18.125 22.74C17.5353 23.5065 16.9256 24.2073 16.3226 24.8372C15.7129 24.2073 15.1031 23.5065 14.5001 22.74Z" fill="white"/>
</g>
<defs>
<clipPath id="clip0_2067_17">
<rect width="32.1614" height="32.1614" fill="white" transform="translate(0.228516)"/>
</clipPath>
</defs>
</svg>
