<svg width="35" height="34" viewBox="0 0 35 34" fill="none" xmlns="http://www.w3.org/2000/svg">
<g clip-path="url(#clip0_2067_26)">
<path d="M17.8148 6.75977C13.6082 6.75977 10.9811 9.01288 9.92886 13.5191C11.506 11.266 13.3468 10.4211 15.449 10.9844C16.6499 11.3065 17.5061 12.2393 18.4546 13.2713C20.0025 14.9521 21.7915 16.8988 25.7006 16.8988C29.9072 16.8988 32.5343 14.6457 33.5865 10.1394C32.0094 12.3925 30.1686 13.2375 28.0664 12.6742C26.8655 12.352 26.0093 11.4192 25.0608 10.3873C23.5129 8.70645 21.7239 6.75977 17.8148 6.75977ZM9.92886 16.8988C5.7223 16.8988 3.09517 19.1519 2.04297 23.6581C3.62015 21.405 5.46094 20.5601 7.56309 21.1234C8.764 21.4456 9.62018 22.3783 10.5687 23.4103C12.1166 25.0911 13.9056 27.0378 17.8148 27.0378C22.0213 27.0378 24.6484 24.7847 25.7006 20.2784C24.1235 22.5316 22.2827 23.3765 20.1805 22.8132C18.9796 22.491 18.1234 21.5582 17.1749 20.5263C15.627 18.8455 13.838 16.8988 9.92886 16.8988Z" stroke="#000" stroke-width="1.09022" stroke-linejoin="round"/>
</g>
<defs>
<clipPath id="clip0_2067_26">
<rect width="33.7967" height="33.7967" fill="#000" transform="translate(0.916016)"/>
</clipPath>
</defs>
</svg>
