<svg width="35" height="34" viewBox="0 0 35 34" fill="none" xmlns="http://www.w3.org/2000/svg">
<g clip-path="url(#clip0_1985_22)">
<path d="M2.01526 0.528073H32.6447C33.2277 0.528073 33.7002 1.00066 33.7002 1.58362V32.2131C33.7002 32.796 33.2277 33.2686 32.6447 33.2686H2.01526C1.4323 33.2686 0.959714 32.796 0.959714 32.2131V1.58362C0.959714 1.00066 1.4323 0.528073 2.01526 0.528073Z" stroke="white" stroke-width="1.05615"/>
<path fill-rule="evenodd" clip-rule="evenodd" d="M21.8789 26.8145V30.0548C22.4676 30.3454 23.095 30.5499 23.7419 30.6621C24.4894 30.8001 25.2482 30.868 26.0084 30.8649C26.7493 30.8684 27.4884 30.7937 28.2136 30.642C28.8647 30.5104 29.4859 30.2598 30.046 29.9027C30.566 29.5671 30.9946 29.1076 31.2933 28.5656C31.8284 27.4433 31.899 26.1552 31.4898 24.9811C31.3171 24.542 31.0598 24.1412 30.7325 23.8014C30.3812 23.44 29.9822 23.1284 29.5465 22.8751C29.0448 22.5813 28.5236 22.3223 27.9865 22.0999C27.5641 21.9246 27.1839 21.7542 26.8459 21.5887C26.5457 21.445 26.2585 21.2758 25.9873 21.0828C25.7749 20.9339 25.5904 20.7487 25.4423 20.5358C25.3143 20.3424 25.2477 20.1149 25.2511 19.8831C25.2483 19.6697 25.3078 19.4601 25.4222 19.28C25.5465 19.0915 25.7124 18.934 25.907 18.8195C26.1449 18.6794 26.4038 18.5785 26.6738 18.5206C27.0052 18.447 27.3439 18.4116 27.6834 18.415C27.9689 18.416 28.2541 18.4365 28.5368 18.4763C28.8421 18.5175 29.1442 18.58 29.4409 18.6632C29.7426 18.7468 30.0377 18.8527 30.3238 18.98C30.6014 19.1038 30.8669 19.253 31.117 19.4257V16.402C30.5964 16.205 30.0565 16.0634 29.5063 15.9795C28.8419 15.8829 28.1711 15.8373 27.4997 15.8433C26.7658 15.8393 26.034 15.9227 25.3198 16.0915C24.6742 16.239 24.0604 16.5012 23.5074 16.8656C22.9938 17.2078 22.5697 17.6681 22.2707 18.208C21.9538 18.8075 21.797 19.4787 21.8155 20.1566C21.7921 21.053 22.0873 21.9287 22.6488 22.628C23.3376 23.4033 24.2061 23.9977 25.1782 24.359C25.6218 24.5421 26.0355 24.7213 26.4192 24.8966C26.7654 25.0506 27.0982 25.2333 27.4141 25.4426C27.6689 25.6083 27.8927 25.8175 28.0753 26.0605C28.2358 26.2809 28.321 26.5472 28.3182 26.8198C28.3196 27.0241 28.2672 27.2252 28.1661 27.4028C28.0538 27.5936 27.8959 27.7537 27.7067 27.8686C27.4698 28.013 27.2107 28.1172 26.9399 28.177C26.5871 28.2559 26.2262 28.2931 25.8647 28.2879C25.1553 28.2866 24.4516 28.1615 23.7852 27.9182C23.089 27.667 22.4434 27.2932 21.8789 26.8145ZM16.4355 18.7477H20.6601V16.0788H8.88086V18.7477H13.0864V30.6336H16.4355V18.7477Z" fill="white"/>
</g>
<defs>
<clipPath id="clip0_1985_22">
<rect width="33.7967" height="33.7967" fill="white" transform="translate(0.431641)"/>
</clipPath>
</defs>
</svg>
