<svg width="114" height="114" viewBox="0 0 114 114" fill="none" xmlns="http://www.w3.org/2000/svg">
<rect width="114" height="114" rx="57" fill="#fbbf24"/>
<path d="M77.9507 54.6236C77.8784 54.3137 77.7317 54.0266 77.5236 53.7879C77.3155 53.5492 77.0525 53.3662 76.7578 53.2553L63.0134 48.0312L66.5109 30.3038C66.5901 29.8919 66.535 29.4651 66.3538 29.0878C66.1726 28.7105 65.8752 28.4031 65.5065 28.212C65.1377 28.021 64.7177 27.9567 64.3097 28.0287C63.9017 28.1008 63.528 28.3054 63.2448 28.6116L36.5242 57.6213C36.3072 57.853 36.1502 58.1356 36.0672 58.4438C35.9843 58.752 35.978 59.0762 36.0489 59.3875C36.1198 59.6988 36.2656 59.9874 36.4735 60.2276C36.6813 60.4678 36.9447 60.6521 37.2399 60.764L50.9891 65.9882L47.5011 83.6962C47.4219 84.1081 47.4771 84.5349 47.6583 84.9122C47.8395 85.2895 48.1369 85.5969 48.5056 85.788C48.8743 85.979 49.2944 86.0433 49.7023 85.9713C50.1103 85.8992 50.4841 85.6946 50.7672 85.3884L77.4879 56.3787C77.7009 56.1469 77.8546 55.8657 77.9353 55.5597C78.016 55.2536 78.0213 54.9322 77.9507 54.6236ZM52.5613 77.7903L55.0592 65.1275C55.1486 64.6785 55.0778 64.2118 54.8593 63.8107C54.6409 63.4096 54.289 63.1001 53.8664 62.9373L41.26 58.1386L61.4483 36.2218L58.9528 48.8845C58.8634 49.3336 58.9343 49.8003 59.1527 50.2014C59.3712 50.6025 59.7231 50.912 60.1457 51.0748L72.7426 55.8614L52.5613 77.7903Z" fill="#0c0a09"/>
</svg>
