<svg width="34" height="34" viewBox="0 0 34 34" fill="none" xmlns="http://www.w3.org/2000/svg">
<path d="M17.035 2.7793C15.2099 2.7793 13.4026 3.13879 11.7164 3.83724C10.0302 4.5357 8.49801 5.55944 7.20744 6.85002C4.601 9.45645 3.13672 12.9915 3.13672 16.6776C3.13672 22.8207 7.12553 28.0325 12.6432 29.881C13.3381 29.9922 13.5604 29.5613 13.5604 29.1861V26.8373C9.71062 27.6712 8.89062 24.9749 8.89062 24.9749C8.25129 23.3627 7.34791 22.9318 7.34791 22.9318C6.08316 22.0701 7.44519 22.0979 7.44519 22.0979C8.83502 22.1952 9.57163 23.5295 9.57163 23.5295C10.7808 25.642 12.8238 25.0166 13.616 24.683C13.7411 23.7796 14.1025 23.1681 14.4916 22.8207C11.4062 22.4732 8.1679 21.2779 8.1679 15.9827C8.1679 14.44 8.69604 13.203 9.59943 12.2162C9.46045 11.8688 8.97401 10.4234 9.73841 8.54709C9.73841 8.54709 10.9059 8.17184 13.5604 9.96472C14.6584 9.65896 15.8537 9.50608 17.035 9.50608C18.2164 9.50608 19.4116 9.65896 20.5096 9.96472C23.1642 8.17184 24.3316 8.54709 24.3316 8.54709C25.096 10.4234 24.6096 11.8688 24.4706 12.2162C25.374 13.203 25.9021 14.44 25.9021 15.9827C25.9021 21.2918 22.6499 22.4593 19.5506 22.8068C20.051 23.2376 20.5096 24.0854 20.5096 25.3779V29.1861C20.5096 29.5613 20.732 30.0061 21.4408 29.881C26.9584 28.0186 30.9333 22.8207 30.9333 16.6776C30.9333 14.8525 30.5738 13.0452 29.8754 11.3589C29.1769 9.67273 28.1532 8.14059 26.8626 6.85002C25.572 5.55944 24.0399 4.5357 22.3537 3.83724C20.6675 3.13879 18.8602 2.7793 17.035 2.7793Z" fill="white"/>
</svg>
