<svg width="34" height="34" viewBox="0 0 34 34" fill="none" xmlns="http://www.w3.org/2000/svg">
<path d="M9.64526 6.94902C9.64489 7.68623 9.35168 8.3931 8.83013 8.91413C8.30859 9.43516 7.60142 9.72766 6.86421 9.72729C6.127 9.72692 5.42013 9.43371 4.8991 8.91216C4.37807 8.39062 4.08557 7.68345 4.08594 6.94624C4.08631 6.20903 4.37952 5.50216 4.90106 4.98113C5.42261 4.4601 6.12978 4.1676 6.86699 4.16797C7.6042 4.16834 8.31107 4.46155 8.8321 4.9831C9.35313 5.50464 9.64563 6.21181 9.64526 6.94902ZM9.72865 11.7856H4.16933V29.1863H9.72865V11.7856ZM18.5124 11.7856H12.9809V29.1863H18.4568V20.0551C18.4568 14.9683 25.0863 14.4958 25.0863 20.0551V29.1863H30.5761V18.165C30.5761 9.5897 20.7639 9.90936 18.4568 14.1205L18.5124 11.7856Z" fill="white"/>
</svg>
