<svg width="35" height="34" viewBox="0 0 35 34" fill="none" xmlns="http://www.w3.org/2000/svg">
<path d="M27.1886 6.82526C25.9142 5.53801 24.3963 4.51739 22.7234 3.82293C21.0505 3.12846 19.256 2.77405 17.4447 2.78036C9.85529 2.78036 3.66979 8.96586 3.66979 16.5553C3.66979 18.9878 4.30919 21.3508 5.50459 23.4358L3.55859 30.5804L10.8561 28.6622C12.8716 29.7603 15.1373 30.3441 17.4447 30.3441C25.0341 30.3441 31.2196 24.1586 31.2196 16.5692C31.2196 12.8857 29.7879 9.42456 27.1886 6.82526ZM17.4447 28.0089C15.3875 28.0089 13.372 27.4529 11.6067 26.4104L11.1897 26.1602L6.85289 27.3L8.00659 23.0744L7.72859 22.6435C6.58566 20.8183 5.97878 18.7087 5.97719 16.5553C5.97719 10.2447 11.1202 5.10166 17.4308 5.10166C20.4888 5.10166 23.3661 6.29706 25.5206 8.46546C26.5874 9.52737 27.4328 10.7905 28.0079 12.1815C28.5829 13.5726 28.8761 15.0639 28.8705 16.5692C28.8983 22.8798 23.7553 28.0089 17.4447 28.0089ZM23.7275 19.4465C23.38 19.2797 21.6842 18.4457 21.3784 18.3206C21.0587 18.2094 20.8363 18.1538 20.6 18.4874C20.3637 18.8349 19.7104 19.6133 19.5158 19.8357C19.3212 20.072 19.1127 20.0998 18.7652 19.9191C18.4177 19.7523 17.3057 19.377 15.9991 18.2094C14.9705 17.292 14.2894 16.1661 14.0809 15.8186C13.8863 15.4711 14.0531 15.2904 14.2338 15.1097C14.3867 14.9568 14.5813 14.7066 14.7481 14.512C14.9149 14.3174 14.9844 14.1645 15.0956 13.9421C15.2068 13.7058 15.1512 13.5112 15.0678 13.3444C14.9844 13.1776 14.2894 11.4818 14.0114 10.7868C13.7334 10.1196 13.4415 10.203 13.233 10.1891H12.5658C12.3295 10.1891 11.9681 10.2725 11.6484 10.62C11.3426 10.9675 10.453 11.8015 10.453 13.4973C10.453 15.1931 11.6901 16.8333 11.8569 17.0557C12.0237 17.292 14.2894 20.767 17.7366 22.2543C18.5567 22.6157 19.1961 22.8242 19.6965 22.9771C20.5166 23.2412 21.2672 23.1995 21.8649 23.1161C22.5321 23.0188 23.9082 22.2821 24.1862 21.4759C24.4781 20.6697 24.4781 19.9886 24.3808 19.8357C24.2835 19.6828 24.075 19.6133 23.7275 19.4465Z" fill="white"/>
</svg>
